<svg id="frontEnd" xmlns="http://www.w3.org/2000/svg" viewBox="0 0 113.95 650.07">
  <defs>
    <style>
      .cls-1 {
        fill: #bc8813;
      }
    </style>
  </defs>
  <g>
    <path class="cls-1" d="M39.87,82.53a16.92,16.92,0,0,1,9.43,3.08A34.59,34.59,0,0,1,56.92,93c2.41,3.07,4.48,6.38,6.71,9.59a50.65,50.65,0,0,0,6.89,8.29,23.68,23.68,0,0,0,8.67,5.34c.4.13.8.24,1.21.34a.36.36,0,0,0,.19-.7,21.68,21.68,0,0,1-8.93-4.94,45.1,45.1,0,0,1-7-8.12c-2.24-3.18-4.3-6.5-6.67-9.59a37.38,37.38,0,0,0-7.59-7.69,18.35,18.35,0,0,0-9.23-3.65c-.44,0-.88,0-1.31,0a.37.37,0,0,0-.36.38.38.38,0,0,0,.36.35Z" transform="translate(-39.13 -36.58)"/>
    <path class="cls-1" d="M40.25,116.37c6-6.06,14.19-8.93,22.32-10.79,8.51-1.94,17.29-3,25.38-6.46a35.43,35.43,0,0,0,10.47-6.74,34.63,34.63,0,0,0,7-9.46,35.82,35.82,0,0,0,3.21-23.2A39.58,39.58,0,0,0,97,38.82c-.73-.69-1.48-1.34-2.26-2-.36-.3-.88.22-.51.51A39.18,39.18,0,0,1,107.3,57.26a35.06,35.06,0,0,1-1.58,23.31,34.47,34.47,0,0,1-6.29,9.74,33.53,33.53,0,0,1-9.8,7.24c-7.84,3.87-16.62,5.07-25.09,6.85-8,1.68-16.13,4.08-22.53,9.36-.79.66-1.55,1.36-2.28,2.09-.33.34.19.86.52.52Z" transform="translate(-39.13 -36.58)"/>
    <path class="cls-1" d="M39.8,70.47a47.63,47.63,0,0,1,27.94,1,24.89,24.89,0,0,1,7.49,3.68c1.88,1.49,3.53,3.75,3.06,6.29a5.91,5.91,0,0,1-4.9,4.52,5.64,5.64,0,0,1-5.65-3.16,6.1,6.1,0,0,1,.44-6.56A8.79,8.79,0,0,1,74.13,73a11.86,11.86,0,0,1,7.36,1.69c5.05,2.88,8.28,7.9,12.52,11.73a21.3,21.3,0,0,0,7,4.33,22,22,0,0,0,7.84,1.19,28.72,28.72,0,0,0,15.51-5.33A51.37,51.37,0,0,0,136.05,74.8c1.77-2.38,3.31-4.93,5.16-7.25a13.71,13.71,0,0,1,7-5.07,7.68,7.68,0,0,1,4,0,.36.36,0,0,0,.44-.27.37.37,0,0,0-.24-.44,9.8,9.8,0,0,0-8.08,1.76,25.2,25.2,0,0,0-6,6.76c-3.38,5-7,9.75-11.63,13.62a29.73,29.73,0,0,1-16.21,7.2,22.13,22.13,0,0,1-8.6-.84,20.47,20.47,0,0,1-7.66-4.62c-4.38-4-7.79-9.35-13.27-12a12,12,0,0,0-7.4-1.26,9.48,9.48,0,0,0-5.89,3.32,7,7,0,0,0,3.92,11,6.6,6.6,0,0,0,6.18-2.47,5.94,5.94,0,0,0,.57-6.52c-1.19-2.3-3.51-3.89-5.77-5a43.28,43.28,0,0,0-8.89-3.13,48.72,48.72,0,0,0-19.24-.76q-2.46.41-4.86,1a.36.36,0,0,0,.2.7Z" transform="translate(-39.13 -36.58)"/>
    <path class="cls-1" d="M116.27,116.69c2.59-3.48,5.24-7.18,6.36-11.44a13.67,13.67,0,0,0,.24-6.23,13.4,13.4,0,0,0-2.21-5,21.9,21.9,0,0,0-8.91-7c-4.29-2-8.9-3-13.37-4.35-4.12-1.29-8.35-3-11.42-6.12-2.91-3-4.56-7.44-2.94-11.46,1.47-3.64,5.06-6.06,8.64-7.34,4.39-1.56,9.09-1.85,13.56-3.09,3.74-1,7.57-2.8,9.88-6a9.82,9.82,0,0,0,1-9.8,7.12,7.12,0,0,0-1.52-2c-.35-.32-.87.2-.52.52,2.64,2.39,2.67,6.49,1.18,9.53-1.75,3.56-5.52,5.59-9.16,6.74-4.33,1.38-8.9,1.67-13.25,3-3.72,1.1-7.36,3.08-9.54,6.39a9.89,9.89,0,0,0-1.68,5.35,11.75,11.75,0,0,0,1.58,5.81c2.07,3.67,5.75,6,9.54,7.64,8,3.37,17.44,3.89,24,10.06a13.51,13.51,0,0,1,4.62,10.13c-.12,4.35-2.45,8.31-4.87,11.79-.61.88-1.24,1.74-1.88,2.6-.29.38.35.75.63.37Z" transform="translate(-39.13 -36.58)"/>
    <path class="cls-1" d="M56.41,37.53A7.64,7.64,0,0,1,56,50.23c-2,1.2-4.9,1.35-6.52-.61a4,4,0,0,1-.93-2.86,3.16,3.16,0,0,1,1.62-2.41c2.06-1.17,4.52-.48,6.43.65,1.17.69,2.25,1.54,3.37,2.31A18.87,18.87,0,0,0,78.49,49a18,18,0,0,0,9.22-10.29A16.12,16.12,0,0,0,88.19,37c.1-.46-.61-.66-.71-.2a17.17,17.17,0,0,1-8.88,11.3A17.91,17.91,0,0,1,63,48.25a23.41,23.41,0,0,1-3.55-2.17,22.93,22.93,0,0,0-3.57-2.27c-2-1-4.65-1.22-6.53.18a3.85,3.85,0,0,0-1.57,2.77,4.65,4.65,0,0,0,.94,3.11,5.52,5.52,0,0,0,6.71,1.44,8.24,8.24,0,0,0,4.72-5.93,8.39,8.39,0,0,0-3.38-8.48c-.39-.28-.75.36-.37.63Z" transform="translate(-39.13 -36.58)"/>
    <path class="cls-1" d="M134.14,116.55a24.55,24.55,0,0,1,4.54-9.71,25.7,25.7,0,0,1,8.17-7,23.9,23.9,0,0,1,5.67-2.17c.46-.11.26-.81-.2-.7a25.18,25.18,0,0,0-9.84,4.9,26.28,26.28,0,0,0-6.95,8.55,24.7,24.7,0,0,0-2.1,5.9C133.33,116.82,134,117,134.14,116.55Z" transform="translate(-39.13 -36.58)"/>
    <path class="cls-1" d="M130.25,36.91a4,4,0,0,0-3.52,2.47,5.38,5.38,0,0,0,.25,4.8c1.81,3.52,5.78,4.76,8.63,7.19a7.6,7.6,0,0,1,2.79,4.33,6.58,6.58,0,0,1-1.32,4.85,9.6,9.6,0,0,1-4.46,3.19,16.91,16.91,0,0,1-5.53,1.11,8.58,8.58,0,0,1-5.27-1.36,5.54,5.54,0,0,1-2.29-3.85,3.74,3.74,0,0,1,1.69-3.56,5.47,5.47,0,0,1,3.93-.64c3.34.66,5.07,4,5.81,7,.94,3.87.57,8,2,11.75a15.55,15.55,0,0,0,6.39,7.65,13.43,13.43,0,0,0,10.72,1.7,15.47,15.47,0,0,0,2.8-1c.43-.2.06-.83-.37-.63a12.83,12.83,0,0,1-11.41.09,14.85,14.85,0,0,1-7.11-7.2c-1.71-3.73-1.37-7.92-2.19-11.86-.65-3.18-2.25-6.71-5.51-7.91-2.62-1-6.14-.21-7.23,2.61a5.3,5.3,0,0,0,.54,4.5,6.9,6.9,0,0,0,3.92,3,12.52,12.52,0,0,0,5.71.23,15.79,15.79,0,0,0,5.42-1.78,9.15,9.15,0,0,0,3.77-3.85,6.72,6.72,0,0,0,.43-5.16c-1.31-3.75-5.29-5.31-8.26-7.48a8.72,8.72,0,0,1-3.38-4.25,4.22,4.22,0,0,1,1.07-4.4,2.87,2.87,0,0,1,2-.81.37.37,0,0,0,.35-.38.36.36,0,0,0-.35-.35Z" transform="translate(-39.13 -36.58)"/>
    <circle class="cls-1" cx="75.86" cy="53.68" r="6.8"/>
    <circle class="cls-1" cx="80.1" cy="15.72" r="5.62"/>
    <circle class="cls-1" cx="11.45" cy="19.88" r="5.62"/>
    <path class="cls-1" d="M152.56,164.09a16.92,16.92,0,0,0-9.43,3.08,34.59,34.59,0,0,0-7.62,7.37c-2.42,3.06-4.49,6.38-6.71,9.58a49.82,49.82,0,0,1-6.89,8.29,23.63,23.63,0,0,1-8.67,5.34c-.4.13-.8.25-1.21.35a.37.37,0,0,1-.19-.71,21.57,21.57,0,0,0,8.93-4.94,45.85,45.85,0,0,0,7-8.11c2.24-3.19,4.3-6.5,6.67-9.6a37.58,37.58,0,0,1,7.59-7.68,18.36,18.36,0,0,1,9.23-3.66c.44,0,.87-.05,1.31-.05a.37.37,0,0,1,0,.74Z" transform="translate(-39.13 -36.58)"/>
    <path class="cls-1" d="M152.18,197.92c-6-6.06-14.19-8.92-22.33-10.78-8.51-1.95-17.29-3-25.37-6.46A35.33,35.33,0,0,1,94,173.93a34.63,34.63,0,0,1-7-9.46,35.81,35.81,0,0,1-3.21-23.2,39.59,39.59,0,0,1,11.68-20.9c.73-.68,1.48-1.33,2.25-2,.37-.29.89.22.52.52a39.11,39.11,0,0,0-13.11,19.88A35,35,0,0,0,93,171.87a33.24,33.24,0,0,0,9.8,7.23c7.84,3.87,16.62,5.07,25.09,6.86,8,1.68,16.13,4.08,22.53,9.36.79.66,1.55,1.35,2.28,2.09a.36.36,0,0,1-.52.51Z" transform="translate(-39.13 -36.58)"/>
    <path class="cls-1" d="M152.63,152a47.55,47.55,0,0,0-27.94,1,24.75,24.75,0,0,0-7.49,3.67c-1.88,1.49-3.54,3.75-3.07,6.29a5.91,5.91,0,0,0,4.9,4.52,5.63,5.63,0,0,0,5.66-3.16,6.1,6.1,0,0,0-.44-6.55,8.83,8.83,0,0,0-6-3.23,11.87,11.87,0,0,0-7.36,1.7c-5,2.88-8.28,7.9-12.53,11.73a21,21,0,0,1-7,4.32,21.59,21.59,0,0,1-7.85,1.19A28.68,28.68,0,0,1,68,168.15a51.81,51.81,0,0,1-11.67-11.79c-1.76-2.38-3.3-4.94-5.16-7.25a13.65,13.65,0,0,0-7-5.07,7.68,7.68,0,0,0-4,0,.37.37,0,0,1-.45-.27.37.37,0,0,1,.25-.43,9.77,9.77,0,0,1,8.08,1.76,25.32,25.32,0,0,1,6,6.75c3.38,5,7,9.75,11.63,13.63a29.64,29.64,0,0,0,16.21,7.19,22,22,0,0,0,8.6-.84,20.29,20.29,0,0,0,7.66-4.62c4.38-4,7.78-9.34,13.27-12.05a12,12,0,0,1,7.4-1.25,9.43,9.43,0,0,1,5.89,3.32,7,7,0,0,1-3.92,11,6.56,6.56,0,0,1-6.18-2.46,5.94,5.94,0,0,1-.57-6.53c1.19-2.3,3.51-3.89,5.77-5a43,43,0,0,1,8.89-3.12,48.35,48.35,0,0,1,19.24-.76c1.63.27,3.25.61,4.85,1a.36.36,0,0,1,.24.46.36.36,0,0,1-.43.25Z" transform="translate(-39.13 -36.58)"/>
    <path class="cls-1" d="M76.16,198.25c-2.59-3.49-5.25-7.18-6.37-11.44a13.85,13.85,0,0,1-.23-6.24,13.43,13.43,0,0,1,2.21-5,21.85,21.85,0,0,1,8.91-7c4.28-1.94,8.9-2.94,13.37-4.34,4.12-1.3,8.34-3,11.42-6.13,2.91-3,4.56-7.43,2.93-11.45-1.47-3.65-5.05-6.07-8.63-7.34-4.39-1.57-9.09-1.85-13.56-3.09-3.74-1-7.57-2.81-9.88-6.05a9.77,9.77,0,0,1-1-9.8,6.84,6.84,0,0,1,1.52-2c.35-.31.87.2.52.52-2.64,2.4-2.68,6.5-1.19,9.53,1.75,3.57,5.53,5.6,9.17,6.75,4.32,1.37,8.9,1.67,13.25,3,3.72,1.1,7.35,3.08,9.54,6.39a10,10,0,0,1,1.68,5.34,11.73,11.73,0,0,1-1.58,5.81c-2.07,3.67-5.75,6-9.55,7.65-8,3.37-17.43,3.88-24,10.06A13.44,13.44,0,0,0,70,183.48c.12,4.35,2.44,8.31,4.86,11.79q.93,1.32,1.89,2.61c.28.37-.35.74-.63.37Z" transform="translate(-39.13 -36.58)"/>
    <path class="cls-1" d="M136,119.09a7.75,7.75,0,0,0-3.19,6.42,7.65,7.65,0,0,0,3.63,6.27c2,1.2,4.89,1.36,6.51-.61a4,4,0,0,0,.94-2.86,3.15,3.15,0,0,0-1.63-2.4c-2.05-1.17-4.52-.48-6.42.64-1.17.7-2.25,1.54-3.37,2.32a19.76,19.76,0,0,1-3.43,1.89,18.73,18.73,0,0,1-15.12-.19,18,18,0,0,1-9.22-10.29,16.3,16.3,0,0,1-.48-1.69c-.1-.46.6-.65.71-.19a17.18,17.18,0,0,0,8.87,11.3,18,18,0,0,0,15.6.1,23.1,23.1,0,0,0,3.55-2.17,23.6,23.6,0,0,1,3.56-2.27c2-.94,4.65-1.21,6.54.19a3.83,3.83,0,0,1,1.57,2.76,4.63,4.63,0,0,1-.94,3.11,5.54,5.54,0,0,1-6.72,1.44,8.21,8.21,0,0,1-4.71-5.93,8.41,8.41,0,0,1,3.38-8.48c.38-.27.75.36.37.64Z" transform="translate(-39.13 -36.58)"/>
    <path class="cls-1" d="M58.29,198.11a24.59,24.59,0,0,0-4.54-9.72,25.54,25.54,0,0,0-8.17-6.95,23.64,23.64,0,0,0-5.67-2.17c-.46-.11-.26-.82.19-.71A25.18,25.18,0,0,1,50,183.47,26.41,26.41,0,0,1,56.9,192a24.47,24.47,0,0,1,2.1,5.89C59.1,198.37,58.39,198.57,58.29,198.11Z" transform="translate(-39.13 -36.58)"/>
    <path class="cls-1" d="M62.18,118.46a4.07,4.07,0,0,1,3.52,2.48,5.36,5.36,0,0,1-.25,4.79c-1.81,3.52-5.78,4.77-8.64,7.2A7.56,7.56,0,0,0,54,137.25a6.56,6.56,0,0,0,1.32,4.86,9.67,9.67,0,0,0,4.46,3.19,17.17,17.17,0,0,0,5.53,1.11,8.6,8.6,0,0,0,5.27-1.36,5.6,5.6,0,0,0,2.29-3.85,3.76,3.76,0,0,0-1.7-3.57,5.48,5.48,0,0,0-3.92-.63c-3.34.66-5.07,4-5.81,7-.94,3.87-.57,8-2,11.74a15.53,15.53,0,0,1-6.39,7.66,13.43,13.43,0,0,1-10.72,1.69,15.16,15.16,0,0,1-2.8-1c-.43-.2-.06-.84.37-.63a12.77,12.77,0,0,0,11.4.08,14.85,14.85,0,0,0,7.12-7.19c1.71-3.74,1.37-7.93,2.19-11.87.65-3.17,2.25-6.71,5.51-7.9,2.62-1,6.14-.22,7.23,2.61a5.3,5.3,0,0,1-.54,4.5,6.85,6.85,0,0,1-3.92,3,12.38,12.38,0,0,1-5.71.24,16.23,16.23,0,0,1-5.42-1.78A9.21,9.21,0,0,1,54,141.3a6.77,6.77,0,0,1-.44-5.16c1.32-3.76,5.3-5.31,8.27-7.49a8.68,8.68,0,0,0,3.38-4.25A4.21,4.21,0,0,0,64.14,120a2.94,2.94,0,0,0-2-.82.36.36,0,0,1-.35-.38.36.36,0,0,1,.35-.35Z" transform="translate(-39.13 -36.58)"/>
    <circle class="cls-1" cx="38.31" cy="135.24" r="6.8"/>
    <circle class="cls-1" cx="34.07" cy="97.28" r="5.62"/>
    <circle class="cls-1" cx="102.72" cy="101.43" r="5.62"/>
    <path class="cls-1" d="M39.87,244a16.85,16.85,0,0,1,9.43,3.09,34.15,34.15,0,0,1,7.62,7.37c2.41,3.06,4.48,6.38,6.71,9.58a50.23,50.23,0,0,0,6.89,8.29,23.55,23.55,0,0,0,8.67,5.34c.4.13.8.25,1.21.35a.37.37,0,0,0,.19-.71,21.68,21.68,0,0,1-8.93-4.94,44.76,44.76,0,0,1-7-8.12c-2.24-3.18-4.3-6.49-6.67-9.59A37.33,37.33,0,0,0,50.41,247a18.27,18.27,0,0,0-9.23-3.66c-.44,0-.88-.05-1.31-.05a.38.38,0,0,0-.36.38.37.37,0,0,0,.36.35Z" transform="translate(-39.13 -36.58)"/>
    <path class="cls-1" d="M40.25,277.82c6-6.06,14.19-8.93,22.32-10.79,8.51-1.94,17.29-3,25.38-6.45a35.46,35.46,0,0,0,10.47-6.75,34.63,34.63,0,0,0,7-9.46,35.82,35.82,0,0,0,3.21-23.2A39.62,39.62,0,0,0,97,200.27c-.73-.68-1.48-1.34-2.26-2-.36-.29-.88.22-.51.52a39.11,39.11,0,0,1,13.11,19.88A35.06,35.06,0,0,1,105.72,242a34.47,34.47,0,0,1-6.29,9.74,33.36,33.36,0,0,1-9.8,7.24c-7.84,3.87-16.62,5.07-25.09,6.85-8,1.69-16.13,4.08-22.53,9.37-.79.65-1.55,1.35-2.28,2.08-.33.34.19.86.52.52Z" transform="translate(-39.13 -36.58)"/>
    <path class="cls-1" d="M39.8,231.93a47.54,47.54,0,0,1,27.94.95,24.89,24.89,0,0,1,7.49,3.68c1.88,1.49,3.53,3.75,3.06,6.29a5.9,5.9,0,0,1-4.9,4.52,5.62,5.62,0,0,1-5.65-3.16,6.1,6.1,0,0,1,.44-6.56,8.79,8.79,0,0,1,5.95-3.22,11.8,11.8,0,0,1,7.36,1.7C86.54,239,89.77,244,94,247.85a21,21,0,0,0,7,4.33,21.79,21.79,0,0,0,7.84,1.19A28.64,28.64,0,0,0,124.39,248a51.37,51.37,0,0,0,11.66-11.79c1.77-2.38,3.31-4.93,5.16-7.25a13.77,13.77,0,0,1,7-5.07,7.68,7.68,0,0,1,4,0,.35.35,0,0,0,.44-.27.37.37,0,0,0-.24-.44,9.81,9.81,0,0,0-8.08,1.77,25,25,0,0,0-6,6.75c-3.38,4.95-7,9.75-11.63,13.63a29.79,29.79,0,0,1-16.21,7.19,22,22,0,0,1-8.6-.84,20.22,20.22,0,0,1-7.66-4.62C89.87,243,86.46,237.73,81,235a12.11,12.11,0,0,0-7.4-1.26,9.49,9.49,0,0,0-5.89,3.33,7,7,0,0,0,3.92,11,6.6,6.6,0,0,0,6.18-2.46,6,6,0,0,0,.57-6.53c-1.19-2.3-3.51-3.89-5.77-5a43.88,43.88,0,0,0-8.89-3.13,48.53,48.53,0,0,0-19.24-.75,47.19,47.19,0,0,0-4.86,1,.37.37,0,0,0-.24.46.38.38,0,0,0,.44.25Z" transform="translate(-39.13 -36.58)"/>
    <path class="cls-1" d="M116.27,278.14c2.59-3.48,5.24-7.17,6.36-11.43a13.71,13.71,0,0,0,.24-6.24,13.36,13.36,0,0,0-2.21-5,21.92,21.92,0,0,0-8.91-7c-4.29-2-8.9-2.94-13.37-4.35C94.26,242.79,90,241.1,87,238c-2.91-3-4.56-7.43-2.94-11.45,1.47-3.65,5.06-6.07,8.64-7.35,4.39-1.56,9.09-1.84,13.56-3.08,3.74-1,7.57-2.81,9.88-6.06a9.8,9.8,0,0,0,1-9.79,7,7,0,0,0-1.52-2c-.35-.32-.87.2-.52.52,2.64,2.39,2.67,6.5,1.18,9.53-1.75,3.56-5.52,5.59-9.16,6.75-4.33,1.37-8.9,1.66-13.25,2.95-3.72,1.11-7.36,3.09-9.54,6.39a9.92,9.92,0,0,0-1.68,5.35,11.75,11.75,0,0,0,1.58,5.81c2.07,3.67,5.75,6,9.54,7.65,8,3.37,17.44,3.88,24,10.06a13.47,13.47,0,0,1,4.62,10.12c-.12,4.35-2.45,8.31-4.87,11.79-.61.88-1.24,1.74-1.88,2.6-.29.38.35.75.63.37Z" transform="translate(-39.13 -36.58)"/>
    <path class="cls-1" d="M56.41,199a7.64,7.64,0,0,1-.44,12.7c-2,1.2-4.9,1.35-6.52-.61a4,4,0,0,1-.93-2.86,3.14,3.14,0,0,1,1.62-2.4c2.06-1.18,4.52-.49,6.43.64,1.17.69,2.25,1.54,3.37,2.31a19.45,19.45,0,0,0,3.43,1.9,18.73,18.73,0,0,0,15.12-.19,18,18,0,0,0,9.22-10.29,17,17,0,0,0,.48-1.69c.1-.46-.61-.65-.71-.19a17.17,17.17,0,0,1-8.88,11.29A17.91,17.91,0,0,1,63,209.7a22.63,22.63,0,0,1-3.55-2.17,22.93,22.93,0,0,0-3.57-2.27c-2-.95-4.65-1.21-6.53.19a3.83,3.83,0,0,0-1.57,2.76,4.63,4.63,0,0,0,.94,3.11,5.52,5.52,0,0,0,6.71,1.44,8.24,8.24,0,0,0,4.72-5.93,8.4,8.4,0,0,0-3.38-8.48c-.39-.28-.75.36-.37.63Z" transform="translate(-39.13 -36.58)"/>
    <path class="cls-1" d="M134.14,278a24.55,24.55,0,0,1,4.54-9.71,25.7,25.7,0,0,1,8.17-7,23.45,23.45,0,0,1,5.67-2.16c.46-.11.26-.82-.2-.71a25.2,25.2,0,0,0-9.84,4.91,26.25,26.25,0,0,0-6.95,8.54,24.7,24.7,0,0,0-2.1,5.9C133.33,278.27,134,278.46,134.14,278Z" transform="translate(-39.13 -36.58)"/>
    <path class="cls-1" d="M130.25,198.36a4.05,4.05,0,0,0-3.52,2.47,5.38,5.38,0,0,0,.25,4.8c1.81,3.52,5.78,4.76,8.63,7.2a7.58,7.58,0,0,1,2.79,4.32,6.56,6.56,0,0,1-1.32,4.85,9.69,9.69,0,0,1-4.46,3.2,17.16,17.16,0,0,1-5.53,1.1,8.51,8.51,0,0,1-5.27-1.35,5.58,5.58,0,0,1-2.29-3.86,3.74,3.74,0,0,1,1.69-3.56,5.46,5.46,0,0,1,3.93-.63c3.34.66,5.07,4,5.81,7,.94,3.87.57,8,2,11.75a15.55,15.55,0,0,0,6.39,7.65,13.43,13.43,0,0,0,10.72,1.7,16.22,16.22,0,0,0,2.8-1c.43-.21.06-.84-.37-.64a12.76,12.76,0,0,1-11.41.09,14.85,14.85,0,0,1-7.11-7.2c-1.71-3.73-1.37-7.92-2.19-11.86-.65-3.17-2.25-6.71-5.51-7.9-2.62-1-6.14-.22-7.23,2.61a5.28,5.28,0,0,0,.54,4.49,6.86,6.86,0,0,0,3.92,3,12.66,12.66,0,0,0,5.71.24,16.23,16.23,0,0,0,5.42-1.78,9.23,9.23,0,0,0,3.77-3.86,6.69,6.69,0,0,0,.43-5.15c-1.31-3.76-5.29-5.31-8.26-7.49a8.72,8.72,0,0,1-3.38-4.25,4.22,4.22,0,0,1,1.07-4.4,3,3,0,0,1,2-.81.37.37,0,0,0,0-.73Z" transform="translate(-39.13 -36.58)"/>
    <circle class="cls-1" cx="75.86" cy="215.14" r="6.8"/>
    <circle class="cls-1" cx="80.1" cy="177.18" r="5.62"/>
    <circle class="cls-1" cx="11.45" cy="181.33" r="5.62"/>
    <path class="cls-1" d="M152.56,325.54a16.92,16.92,0,0,0-9.43,3.08,34.59,34.59,0,0,0-7.62,7.37c-2.42,3.07-4.49,6.38-6.71,9.58a50.3,50.3,0,0,1-6.89,8.3,23.76,23.76,0,0,1-8.67,5.34c-.4.13-.8.24-1.21.34a.36.36,0,0,1-.19-.7,21.8,21.8,0,0,0,8.93-4.94,45.91,45.91,0,0,0,7-8.12c2.24-3.19,4.3-6.5,6.67-9.59a37.38,37.38,0,0,1,7.59-7.69,18.35,18.35,0,0,1,9.23-3.65,11.48,11.48,0,0,1,1.31-.05.36.36,0,0,1,.35.38.36.36,0,0,1-.35.35Z" transform="translate(-39.13 -36.58)"/>
    <path class="cls-1" d="M152.18,359.38c-6-6.06-14.19-8.93-22.33-10.79-8.51-1.94-17.29-3-25.37-6.46A35.3,35.3,0,0,1,94,335.39a34.79,34.79,0,0,1-7-9.46,35.82,35.82,0,0,1-3.21-23.2,39.58,39.58,0,0,1,11.68-20.91c.73-.68,1.48-1.33,2.25-2,.37-.29.89.23.52.52a39.18,39.18,0,0,0-13.11,19.89A35,35,0,0,0,93,333.32a33.27,33.27,0,0,0,9.8,7.24c7.84,3.87,16.62,5.07,25.09,6.85,8,1.68,16.13,4.08,22.53,9.36.79.66,1.55,1.36,2.28,2.09.33.33-.19.85-.52.52Z" transform="translate(-39.13 -36.58)"/>
    <path class="cls-1" d="M152.63,313.48a47.55,47.55,0,0,0-27.94,1,25,25,0,0,0-7.49,3.67c-1.88,1.5-3.54,3.76-3.07,6.29a5.93,5.93,0,0,0,4.9,4.53,5.64,5.64,0,0,0,5.66-3.17,6.1,6.1,0,0,0-.44-6.55,8.83,8.83,0,0,0-6-3.23,11.94,11.94,0,0,0-7.36,1.7c-5,2.88-8.28,7.9-12.53,11.73a21.16,21.16,0,0,1-7,4.33,21.8,21.8,0,0,1-7.85,1.18A28.68,28.68,0,0,1,68,329.6a51.61,51.61,0,0,1-11.67-11.79c-1.76-2.38-3.3-4.94-5.16-7.25a13.65,13.65,0,0,0-7-5.07,7.68,7.68,0,0,0-4,0,.39.39,0,0,1-.45-.27.38.38,0,0,1,.25-.44,9.81,9.81,0,0,1,8.08,1.76,25.2,25.2,0,0,1,6,6.76c3.38,5,7,9.75,11.63,13.62a29.64,29.64,0,0,0,16.21,7.19,22,22,0,0,0,8.6-.83,20.55,20.55,0,0,0,7.66-4.62c4.38-4.05,7.78-9.35,13.27-12.06a12.11,12.11,0,0,1,7.4-1.25,9.43,9.43,0,0,1,5.89,3.32,7,7,0,0,1-3.92,11,6.59,6.59,0,0,1-6.18-2.47,5.92,5.92,0,0,1-.57-6.52c1.19-2.3,3.51-3.89,5.77-5a43,43,0,0,1,8.89-3.12,48.53,48.53,0,0,1,19.24-.76c1.63.27,3.25.62,4.85,1a.36.36,0,0,1,.24.46.35.35,0,0,1-.43.24Z" transform="translate(-39.13 -36.58)"/>
    <path class="cls-1" d="M76.16,359.7c-2.59-3.48-5.25-7.18-6.37-11.44a13.85,13.85,0,0,1-.23-6.24,13.43,13.43,0,0,1,2.21-5,21.85,21.85,0,0,1,8.91-7C85,328,89.58,327,94.05,325.64c4.12-1.29,8.34-3,11.42-6.12,2.91-3,4.56-7.44,2.93-11.46-1.47-3.65-5.05-6.06-8.63-7.34-4.39-1.57-9.09-1.85-13.56-3.09-3.74-1-7.57-2.8-9.88-6.05a9.77,9.77,0,0,1-1-9.8,6.94,6.94,0,0,1,1.52-2c.35-.32.87.2.52.51-2.64,2.4-2.68,6.5-1.19,9.54,1.75,3.56,5.53,5.59,9.17,6.74,4.32,1.38,8.9,1.67,13.25,3,3.72,1.1,7.35,3.08,9.54,6.39a10,10,0,0,1,1.68,5.35,11.69,11.69,0,0,1-1.58,5.8c-2.07,3.67-5.75,6-9.55,7.65-8,3.37-17.43,3.89-24,10.06A13.45,13.45,0,0,0,70,344.93c.12,4.36,2.44,8.32,4.86,11.79q.93,1.32,1.89,2.61c.28.38-.35.74-.63.37Z" transform="translate(-39.13 -36.58)"/>
    <path class="cls-1" d="M136,280.54a7.75,7.75,0,0,0-3.19,6.42,7.67,7.67,0,0,0,3.63,6.28c2,1.2,4.89,1.35,6.51-.61a4.05,4.05,0,0,0,.94-2.87,3.17,3.17,0,0,0-1.63-2.4c-2.05-1.17-4.52-.48-6.42.64-1.17.7-2.25,1.55-3.37,2.32a19.76,19.76,0,0,1-3.43,1.89,18.69,18.69,0,0,1-15.12-.19,18,18,0,0,1-9.22-10.29,16.12,16.12,0,0,1-.48-1.68c-.1-.46.6-.66.71-.2a17.16,17.16,0,0,0,8.87,11.3,17.9,17.9,0,0,0,15.6.1,23,23,0,0,0,3.55-2.16,22.84,22.84,0,0,1,3.56-2.27c2-.95,4.65-1.22,6.54.18a3.83,3.83,0,0,1,1.57,2.76,4.66,4.66,0,0,1-.94,3.12,5.54,5.54,0,0,1-6.72,1.44,8.25,8.25,0,0,1-4.71-5.93,8.39,8.39,0,0,1,3.38-8.48c.38-.28.75.36.37.63Z" transform="translate(-39.13 -36.58)"/>
    <path class="cls-1" d="M58.29,359.56a24.55,24.55,0,0,0-4.54-9.71,25.7,25.7,0,0,0-8.17-7,24.06,24.06,0,0,0-5.67-2.17c-.46-.11-.26-.82.19-.7a25,25,0,0,1,9.85,4.9,26.41,26.41,0,0,1,6.95,8.55,24.78,24.78,0,0,1,2.1,5.89C59.1,359.82,58.39,360,58.29,359.56Z" transform="translate(-39.13 -36.58)"/>
    <path class="cls-1" d="M62,279.91a4.06,4.06,0,0,1,3.52,2.48,5.38,5.38,0,0,1-.25,4.8c-1.81,3.51-5.78,4.76-8.63,7.19a7.61,7.61,0,0,0-2.79,4.32,6.59,6.59,0,0,0,1.32,4.86,9.67,9.67,0,0,0,4.46,3.19,17.17,17.17,0,0,0,5.53,1.11,8.58,8.58,0,0,0,5.27-1.36,5.54,5.54,0,0,0,2.29-3.85,3.73,3.73,0,0,0-1.7-3.56,5.43,5.43,0,0,0-3.92-.64c-3.34.66-5.07,4-5.81,7-.94,3.87-.57,8-2,11.75a15.55,15.55,0,0,1-6.39,7.65,13.43,13.43,0,0,1-10.72,1.7,15.47,15.47,0,0,1-2.8-1.05c-.43-.2-.06-.83.37-.63A12.79,12.79,0,0,0,51.1,325a14.83,14.83,0,0,0,7.11-7.19c1.71-3.73,1.37-7.92,2.19-11.87.65-3.17,2.25-6.71,5.51-7.9,2.62-1,6.14-.21,7.23,2.61a5.3,5.3,0,0,1-.54,4.5,6.85,6.85,0,0,1-3.92,3,12.38,12.38,0,0,1-5.71.24,16,16,0,0,1-5.42-1.78,9.21,9.21,0,0,1-3.77-3.85,6.77,6.77,0,0,1-.44-5.16c1.32-3.76,5.3-5.31,8.27-7.48A8.72,8.72,0,0,0,65,285.86a4.22,4.22,0,0,0-1.07-4.4,2.87,2.87,0,0,0-2-.81.37.37,0,0,1-.35-.38.38.38,0,0,1,.35-.36Z" transform="translate(-39.13 -36.58)"/>
    <circle class="cls-1" cx="38.31" cy="296.69" r="6.8"/>
    <circle class="cls-1" cx="34.07" cy="258.73" r="5.62"/>
    <circle class="cls-1" cx="102.72" cy="262.89" r="5.62"/>
    <path class="cls-1" d="M39.65,409.32a16.93,16.93,0,0,1,9.43,3.09,34.15,34.15,0,0,1,7.62,7.37c2.42,3.06,4.49,6.38,6.71,9.58a50.23,50.23,0,0,0,6.89,8.29A23.63,23.63,0,0,0,79,443c.4.13.8.25,1.21.35a.37.37,0,0,0,.19-.71,21.68,21.68,0,0,1-8.93-4.94,45.44,45.44,0,0,1-7-8.11c-2.24-3.19-4.3-6.5-6.67-9.6a37.33,37.33,0,0,0-7.59-7.68A18.36,18.36,0,0,0,41,408.64c-.44,0-.87-.05-1.31-.05a.37.37,0,0,0-.35.38.35.35,0,0,0,.35.35Z" transform="translate(-39.13 -36.58)"/>
    <path class="cls-1" d="M40,443.16c6-6.06,14.19-8.93,22.32-10.78,8.51-1.95,17.29-3,25.38-6.46a35.33,35.33,0,0,0,10.47-6.75,34.63,34.63,0,0,0,7-9.46,35.81,35.81,0,0,0,3.21-23.2,39.59,39.59,0,0,0-11.68-20.9c-.73-.68-1.48-1.34-2.25-2-.37-.29-.89.22-.52.52a39.11,39.11,0,0,1,13.11,19.88,35,35,0,0,1-7.87,33.05,33.1,33.1,0,0,1-9.8,7.24c-7.84,3.87-16.62,5.07-25.09,6.85-8,1.69-16.13,4.08-22.53,9.37-.79.65-1.55,1.35-2.28,2.08-.33.34.19.86.52.52Z" transform="translate(-39.13 -36.58)"/>
    <path class="cls-1" d="M39.58,397.27a47.54,47.54,0,0,1,27.94,1A25,25,0,0,1,75,401.9c1.88,1.49,3.54,3.75,3.07,6.29a5.92,5.92,0,0,1-4.9,4.52,5.63,5.63,0,0,1-5.66-3.16A6.12,6.12,0,0,1,68,403a8.82,8.82,0,0,1,6-3.22,11.8,11.8,0,0,1,7.36,1.7c5,2.88,8.28,7.9,12.53,11.73a21,21,0,0,0,7,4.32,21.79,21.79,0,0,0,7.84,1.19,28.64,28.64,0,0,0,15.51-5.33,51.37,51.37,0,0,0,11.66-11.79c1.77-2.38,3.31-4.93,5.16-7.25a13.77,13.77,0,0,1,7-5.07,7.68,7.68,0,0,1,4,0,.37.37,0,0,0,.45-.27.37.37,0,0,0-.25-.43,9.77,9.77,0,0,0-8.08,1.76,25,25,0,0,0-6,6.75c-3.38,4.95-7,9.75-11.63,13.63a29.79,29.79,0,0,1-16.21,7.19,22,22,0,0,1-8.6-.84A20.29,20.29,0,0,1,94,412.42c-4.38-4-7.78-9.35-13.27-12.05a12,12,0,0,0-7.4-1.25,9.43,9.43,0,0,0-5.89,3.32,6.73,6.73,0,0,0-1,6.58,6.81,6.81,0,0,0,4.91,4.38,6.58,6.58,0,0,0,6.18-2.46,5.94,5.94,0,0,0,.57-6.53c-1.19-2.3-3.51-3.89-5.77-5a43,43,0,0,0-8.89-3.12,48.35,48.35,0,0,0-19.24-.76,47,47,0,0,0-4.85,1,.37.37,0,0,0,.19.71Z" transform="translate(-39.13 -36.58)"/>
    <path class="cls-1" d="M116.05,443.48c2.59-3.48,5.25-7.17,6.37-11.43a13.85,13.85,0,0,0,.23-6.24,13.36,13.36,0,0,0-2.21-5,21.85,21.85,0,0,0-8.91-7c-4.28-1.95-8.9-2.94-13.37-4.35-4.12-1.29-8.34-3-11.42-6.12-2.91-3-4.56-7.43-2.94-11.45,1.48-3.65,5.06-6.07,8.64-7.35,4.39-1.56,9.09-1.84,13.56-3.08,3.74-1,7.57-2.81,9.88-6.06a9.75,9.75,0,0,0,1-9.79,7,7,0,0,0-1.52-2c-.35-.32-.87.2-.52.52,2.64,2.4,2.68,6.5,1.19,9.53-1.75,3.56-5.53,5.59-9.17,6.75-4.32,1.37-8.9,1.66-13.25,2.95-3.72,1.11-7.35,3.09-9.54,6.39a10,10,0,0,0-1.68,5.35A11.75,11.75,0,0,0,84,400.89c2.07,3.67,5.75,6,9.55,7.65,8,3.37,17.43,3.88,24,10.06a13.44,13.44,0,0,1,4.62,10.12c-.12,4.35-2.44,8.31-4.86,11.79-.62.88-1.25,1.74-1.89,2.6-.28.38.35.75.63.37Z" transform="translate(-39.13 -36.58)"/>
    <path class="cls-1" d="M56.19,364.32a7.77,7.77,0,0,1,3.19,6.43A7.65,7.65,0,0,1,55.75,377c-2,1.2-4.89,1.35-6.51-.61a4,4,0,0,1-.94-2.86,3.15,3.15,0,0,1,1.63-2.4c2-1.18,4.52-.48,6.42.64,1.17.7,2.25,1.54,3.37,2.31a19.81,19.81,0,0,0,3.43,1.9,18.73,18.73,0,0,0,15.12-.19,18,18,0,0,0,9.22-10.29,17,17,0,0,0,.48-1.69c.1-.46-.6-.65-.71-.19a17.23,17.23,0,0,1-8.87,11.3,18,18,0,0,1-15.6.1,23.1,23.1,0,0,1-3.55-2.17,22.84,22.84,0,0,0-3.56-2.27c-2-1-4.65-1.21-6.54.19a3.83,3.83,0,0,0-1.57,2.76,4.63,4.63,0,0,0,.94,3.11,5.54,5.54,0,0,0,6.72,1.44,8.25,8.25,0,0,0,4.71-5.93,8.41,8.41,0,0,0-3.38-8.48c-.38-.28-.75.36-.37.63Z" transform="translate(-39.13 -36.58)"/>
    <path class="cls-1" d="M133.92,443.34a24.55,24.55,0,0,1,4.54-9.71,25.7,25.7,0,0,1,8.17-7,23.61,23.61,0,0,1,5.67-2.16c.46-.11.26-.82-.19-.71a25.18,25.18,0,0,0-9.85,4.91,26.31,26.31,0,0,0-6.95,8.55,24.47,24.47,0,0,0-2.1,5.89C133.11,443.61,133.82,443.81,133.92,443.34Z" transform="translate(-39.13 -36.58)"/>
    <path class="cls-1" d="M130,363.7a4.06,4.06,0,0,0-3.52,2.48,5.36,5.36,0,0,0,.25,4.79c1.81,3.52,5.78,4.77,8.64,7.2a7.56,7.56,0,0,1,2.78,4.32,6.52,6.52,0,0,1-1.32,4.85,9.69,9.69,0,0,1-4.46,3.2,17.16,17.16,0,0,1-5.53,1.1,8.52,8.52,0,0,1-5.27-1.35,5.58,5.58,0,0,1-2.29-3.85,3.76,3.76,0,0,1,1.7-3.57,5.43,5.43,0,0,1,3.92-.63c3.34.66,5.07,4,5.81,7,.94,3.87.57,8,2,11.75a15.55,15.55,0,0,0,6.39,7.65,13.39,13.39,0,0,0,10.72,1.7,15.92,15.92,0,0,0,2.8-1c.43-.21.06-.84-.37-.63a12.77,12.77,0,0,1-11.4.08,14.83,14.83,0,0,1-7.12-7.2c-1.71-3.73-1.37-7.92-2.19-11.86-.65-3.17-2.25-6.71-5.51-7.9-2.62-1-6.14-.22-7.23,2.61a5.3,5.3,0,0,0,.54,4.5,6.89,6.89,0,0,0,3.92,3,12.52,12.52,0,0,0,5.71.24,16.23,16.23,0,0,0,5.42-1.78,9.17,9.17,0,0,0,3.77-3.86,6.74,6.74,0,0,0,.44-5.15c-1.32-3.76-5.3-5.31-8.27-7.49a8.72,8.72,0,0,1-3.38-4.25,4.24,4.24,0,0,1,1.07-4.4,3,3,0,0,1,2-.81.36.36,0,0,0,.35-.38.37.37,0,0,0-.35-.35Z" transform="translate(-39.13 -36.58)"/>
    <circle class="cls-1" cx="75.64" cy="380.48" r="6.8"/>
    <circle class="cls-1" cx="79.88" cy="342.52" r="5.62"/>
    <circle class="cls-1" cx="11.23" cy="346.67" r="5.62"/>
    <path class="cls-1" d="M152.34,490.88a16.92,16.92,0,0,0-9.43,3.08,34.59,34.59,0,0,0-7.62,7.37c-2.41,3.07-4.48,6.38-6.71,9.59a50.65,50.65,0,0,1-6.89,8.29,23.68,23.68,0,0,1-8.67,5.34c-.4.13-.8.24-1.21.34a.36.36,0,0,1-.19-.7,21.8,21.8,0,0,0,8.93-4.94,45.5,45.5,0,0,0,7-8.12c2.24-3.19,4.3-6.5,6.67-9.59a37.38,37.38,0,0,1,7.59-7.69A18.35,18.35,0,0,1,151,490.2c.44,0,.87-.05,1.31-.05a.37.37,0,0,1,.36.38.38.38,0,0,1-.36.35Z" transform="translate(-39.13 -36.58)"/>
    <path class="cls-1" d="M152,524.72c-6-6.06-14.19-8.93-22.32-10.79-8.51-1.94-17.29-3-25.38-6.46a35.43,35.43,0,0,1-10.47-6.74,34.63,34.63,0,0,1-7-9.46,35.82,35.82,0,0,1-3.21-23.2,39.58,39.58,0,0,1,11.68-20.91c.73-.68,1.48-1.33,2.26-2,.36-.29.88.23.51.52a39.18,39.18,0,0,0-13.11,19.89,35.12,35.12,0,0,0,1.57,23.31,34.72,34.72,0,0,0,6.3,9.74,33.53,33.53,0,0,0,9.8,7.24c7.84,3.87,16.62,5.07,25.09,6.85,8,1.68,16.13,4.08,22.53,9.36.79.66,1.55,1.36,2.28,2.09a.37.37,0,0,1-.52.52Z" transform="translate(-39.13 -36.58)"/>
    <path class="cls-1" d="M152.41,478.82a47.63,47.63,0,0,0-27.94,1,24.78,24.78,0,0,0-7.49,3.68c-1.88,1.49-3.53,3.75-3.06,6.28a5.91,5.91,0,0,0,4.9,4.53,5.63,5.63,0,0,0,5.65-3.17,6.08,6.08,0,0,0-.44-6.55,8.81,8.81,0,0,0-6-3.23,11.94,11.94,0,0,0-7.36,1.7c-5,2.88-8.28,7.9-12.52,11.73a21.3,21.3,0,0,1-7,4.33,21.78,21.78,0,0,1-7.84,1.18,28.71,28.71,0,0,1-15.51-5.32,51.37,51.37,0,0,1-11.66-11.79c-1.77-2.38-3.31-4.94-5.16-7.25a13.71,13.71,0,0,0-7-5.07,7.68,7.68,0,0,0-4,0,.37.37,0,0,1-.2-.71,9.8,9.8,0,0,1,8.08,1.76,25.2,25.2,0,0,1,6,6.76c3.38,4.95,7,9.75,11.63,13.62a29.73,29.73,0,0,0,16.21,7.2,22.13,22.13,0,0,0,8.6-.84A20.47,20.47,0,0,0,98,494c4.38-4.05,7.79-9.35,13.27-12.06a12.11,12.11,0,0,1,7.4-1.25,9.43,9.43,0,0,1,5.89,3.32,7,7,0,0,1-3.92,11,6.59,6.59,0,0,1-6.18-2.47,5.94,5.94,0,0,1-.57-6.52c1.19-2.3,3.51-3.89,5.77-5a42.7,42.7,0,0,1,8.89-3.13,48.53,48.53,0,0,1,19.24-.76q2.46.4,4.86,1.05a.36.36,0,0,1-.2.7Z" transform="translate(-39.13 -36.58)"/>
    <path class="cls-1" d="M75.94,525c-2.59-3.48-5.24-7.18-6.36-11.44a13.7,13.7,0,0,1-.24-6.24,13.43,13.43,0,0,1,2.21-5,22,22,0,0,1,8.91-7c4.29-1.94,8.9-2.94,13.37-4.34,4.12-1.29,8.35-3,11.42-6.12,2.91-3,4.56-7.44,2.94-11.46-1.47-3.64-5.06-6.06-8.64-7.34-4.39-1.57-9.09-1.85-13.56-3.09-3.74-1-7.57-2.8-9.88-6.05a9.82,9.82,0,0,1-1-9.8,7.12,7.12,0,0,1,1.52-2c.35-.32.87.2.52.51-2.64,2.4-2.67,6.5-1.18,9.54,1.74,3.56,5.52,5.59,9.16,6.74,4.33,1.38,8.9,1.67,13.25,3,3.72,1.1,7.36,3.08,9.54,6.39a9.89,9.89,0,0,1,1.68,5.35,11.69,11.69,0,0,1-1.58,5.8c-2.07,3.68-5.75,6.05-9.55,7.65-8,3.37-17.43,3.89-24,10.06a13.49,13.49,0,0,0-4.62,10.12c.12,4.36,2.45,8.32,4.87,11.8.61.88,1.24,1.74,1.88,2.6.28.38-.35.74-.63.37Z" transform="translate(-39.13 -36.58)"/>
    <path class="cls-1" d="M135.8,445.88a7.62,7.62,0,0,0,.44,12.7c2,1.2,4.89,1.35,6.52-.61a4,4,0,0,0,.93-2.87,3.16,3.16,0,0,0-1.62-2.4c-2.06-1.17-4.53-.48-6.43.64-1.17.7-2.25,1.55-3.37,2.32a19.4,19.4,0,0,1-3.43,1.89,18.69,18.69,0,0,1-15.12-.19,18,18,0,0,1-9.22-10.29,16.12,16.12,0,0,1-.48-1.68c-.1-.46.61-.66.71-.2a17.17,17.17,0,0,0,8.88,11.3,17.88,17.88,0,0,0,15.59.1,22.57,22.57,0,0,0,3.55-2.16,22.93,22.93,0,0,1,3.57-2.27c2-1,4.64-1.22,6.53.18a3.85,3.85,0,0,1,1.57,2.76,4.66,4.66,0,0,1-.94,3.12,5.52,5.52,0,0,1-6.71,1.44,8.24,8.24,0,0,1-4.72-5.93,8.39,8.39,0,0,1,3.38-8.48c.38-.28.75.36.37.63Z" transform="translate(-39.13 -36.58)"/>
    <path class="cls-1" d="M58.07,524.9a24.55,24.55,0,0,0-4.54-9.71,25.7,25.7,0,0,0-8.17-7,23.9,23.9,0,0,0-5.67-2.17c-.46-.11-.26-.81.2-.7a25.18,25.18,0,0,1,9.84,4.9,26.28,26.28,0,0,1,7,8.55,24.78,24.78,0,0,1,2.1,5.89C58.88,525.16,58.17,525.36,58.07,524.9Z" transform="translate(-39.13 -36.58)"/>
    <path class="cls-1" d="M62,445.25a4.06,4.06,0,0,1,3.52,2.48,5.38,5.38,0,0,1-.25,4.8c-1.81,3.51-5.78,4.76-8.63,7.19A7.61,7.61,0,0,0,53.81,464a6.59,6.59,0,0,0,1.32,4.86,9.6,9.6,0,0,0,4.46,3.19,17.17,17.17,0,0,0,5.53,1.11,8.58,8.58,0,0,0,5.27-1.36A5.54,5.54,0,0,0,72.68,468a3.73,3.73,0,0,0-1.7-3.56,5.43,5.43,0,0,0-3.92-.64c-3.34.66-5.07,4-5.81,7-.94,3.87-.57,8-2,11.75a15.55,15.55,0,0,1-6.39,7.65,13.43,13.43,0,0,1-10.72,1.7,15.47,15.47,0,0,1-2.8-1.05c-.43-.2-.06-.83.37-.63a12.79,12.79,0,0,0,11.41.08,14.83,14.83,0,0,0,7.11-7.19c1.71-3.73,1.37-7.92,2.19-11.87.65-3.17,2.25-6.71,5.51-7.9,2.62-1,6.14-.21,7.23,2.61a5.3,5.3,0,0,1-.54,4.5,6.9,6.9,0,0,1-3.92,3,12.52,12.52,0,0,1-5.71.23,15.79,15.79,0,0,1-5.42-1.78,9.21,9.21,0,0,1-3.77-3.85,6.76,6.76,0,0,1-.44-5.16c1.32-3.76,5.3-5.31,8.27-7.48A8.72,8.72,0,0,0,65,451.2a4.22,4.22,0,0,0-1.07-4.4,2.87,2.87,0,0,0-2-.81.37.37,0,0,1-.35-.38.38.38,0,0,1,.35-.36Z" transform="translate(-39.13 -36.58)"/>
    <circle class="cls-1" cx="38.09" cy="462.03" r="6.8"/>
    <circle class="cls-1" cx="33.85" cy="424.07" r="5.62"/>
    <circle class="cls-1" cx="102.5" cy="428.23" r="5.62"/>
    <path class="cls-1" d="M39.65,570.78a16.92,16.92,0,0,1,9.43,3.08,34.59,34.59,0,0,1,7.62,7.37c2.42,3.06,4.49,6.38,6.71,9.58a49.82,49.82,0,0,0,6.89,8.29A23.66,23.66,0,0,0,79,604.45c.4.12.8.24,1.21.34a.37.37,0,0,0,.19-.71,21.57,21.57,0,0,1-8.93-4.94,45.44,45.44,0,0,1-7-8.11c-2.24-3.19-4.3-6.5-6.67-9.6a37.58,37.58,0,0,0-7.59-7.68A18.36,18.36,0,0,0,41,570.09c-.44,0-.87-.05-1.31-.05a.37.37,0,0,0-.35.38.36.36,0,0,0,.35.36Z" transform="translate(-39.13 -36.58)"/>
    <path class="cls-1" d="M40,604.62c6-6.07,14.19-8.93,22.32-10.79,8.51-2,17.29-3,25.38-6.46a35.33,35.33,0,0,0,10.47-6.75,34.63,34.63,0,0,0,7-9.46,35.81,35.81,0,0,0,3.21-23.2,39.59,39.59,0,0,0-11.68-20.9c-.73-.68-1.48-1.33-2.25-2-.37-.29-.89.22-.52.52a39.19,39.19,0,0,1,13.11,19.88,35,35,0,0,1-7.87,33.06,33.24,33.24,0,0,1-9.8,7.23c-7.84,3.88-16.62,5.07-25.09,6.86-8,1.68-16.13,4.08-22.53,9.36-.79.66-1.55,1.35-2.28,2.09-.33.33.19.85.52.52Z" transform="translate(-39.13 -36.58)"/>
    <path class="cls-1" d="M39.58,558.72a47.55,47.55,0,0,1,27.94,1A25,25,0,0,1,75,563.35c1.88,1.5,3.54,3.76,3.07,6.29a5.93,5.93,0,0,1-4.9,4.53A5.65,5.65,0,0,1,67.52,571a6.1,6.1,0,0,1,.44-6.55,8.83,8.83,0,0,1,6-3.23,11.87,11.87,0,0,1,7.36,1.7c5,2.88,8.28,7.9,12.53,11.73a21.16,21.16,0,0,0,7,4.33,21.78,21.78,0,0,0,7.84,1.18,28.71,28.71,0,0,0,15.51-5.32,51.77,51.77,0,0,0,11.66-11.79c1.77-2.38,3.31-4.94,5.16-7.25a13.71,13.71,0,0,1,7-5.07,7.58,7.58,0,0,1,4,0,.38.38,0,0,0,.45-.28.38.38,0,0,0-.25-.43,9.77,9.77,0,0,0-8.08,1.76,25.2,25.2,0,0,0-6,6.76c-3.38,5-7,9.75-11.63,13.62a29.64,29.64,0,0,1-16.21,7.19,22.15,22.15,0,0,1-8.6-.83A20.44,20.44,0,0,1,94,573.87c-4.38-4-7.78-9.34-13.27-12a12,12,0,0,0-7.4-1.25,9.43,9.43,0,0,0-5.89,3.32,7,7,0,0,0,3.92,11,6.56,6.56,0,0,0,6.18-2.46,5.94,5.94,0,0,0,.57-6.53c-1.19-2.29-3.51-3.88-5.77-5a43,43,0,0,0-8.89-3.12A48.35,48.35,0,0,0,44.24,557c-1.64.27-3.25.62-4.85,1a.36.36,0,0,0-.24.46.35.35,0,0,0,.43.25Z" transform="translate(-39.13 -36.58)"/>
    <path class="cls-1" d="M116.05,604.94c2.59-3.48,5.25-7.18,6.37-11.44a13.85,13.85,0,0,0,.23-6.24,13.43,13.43,0,0,0-2.21-5,21.85,21.85,0,0,0-8.91-7c-4.28-1.94-8.9-2.94-13.37-4.34-4.12-1.3-8.34-3-11.42-6.12-2.91-3-4.56-7.44-2.94-11.46,1.48-3.65,5.06-6.07,8.64-7.34,4.39-1.57,9.09-1.85,13.56-3.09,3.74-1,7.57-2.81,9.88-6a9.77,9.77,0,0,0,1-9.8,7,7,0,0,0-1.52-2c-.35-.31-.87.2-.52.52,2.64,2.4,2.68,6.5,1.19,9.53-1.75,3.57-5.53,5.6-9.17,6.75-4.32,1.37-8.9,1.67-13.25,3-3.72,1.1-7.35,3.08-9.54,6.39a10,10,0,0,0-1.68,5.34A11.7,11.7,0,0,0,84,562.34c2.07,3.67,5.75,6,9.55,7.65,8,3.37,17.43,3.88,24,10.06a13.45,13.45,0,0,1,4.62,10.12c-.12,4.35-2.44,8.31-4.86,11.79q-.93,1.32-1.89,2.61c-.28.38.35.74.63.37Z" transform="translate(-39.13 -36.58)"/>
    <path class="cls-1" d="M56.19,525.78a7.75,7.75,0,0,1,3.19,6.42,7.64,7.64,0,0,1-3.63,6.27c-2,1.21-4.89,1.36-6.51-.61A4,4,0,0,1,48.3,535a3.17,3.17,0,0,1,1.63-2.4c2-1.17,4.52-.48,6.42.64,1.17.7,2.25,1.54,3.37,2.32a19.76,19.76,0,0,0,3.43,1.89,18.69,18.69,0,0,0,15.12-.19A18,18,0,0,0,87.49,527a16.3,16.3,0,0,0,.48-1.69c.1-.45-.6-.65-.71-.19a17.18,17.18,0,0,1-8.87,11.3,17.93,17.93,0,0,1-15.6.1,23.85,23.85,0,0,1-3.55-2.16,22.89,22.89,0,0,0-3.56-2.28c-2-.94-4.65-1.21-6.54.19A3.83,3.83,0,0,0,47.57,535a4.67,4.67,0,0,0,.94,3.12,5.56,5.56,0,0,0,6.72,1.44,8.25,8.25,0,0,0,4.71-5.94,8.41,8.41,0,0,0-3.38-8.48c-.38-.27-.75.36-.37.64Z" transform="translate(-39.13 -36.58)"/>
    <path class="cls-1" d="M133.92,604.8a24.48,24.48,0,0,1,4.54-9.71,25.57,25.57,0,0,1,8.17-7A23.64,23.64,0,0,1,152.3,586c.46-.11.26-.82-.19-.71a25.18,25.18,0,0,0-9.85,4.91,26.41,26.41,0,0,0-6.95,8.55,24.63,24.63,0,0,0-2.1,5.89C133.11,605.06,133.82,605.26,133.92,604.8Z" transform="translate(-39.13 -36.58)"/>
    <path class="cls-1" d="M130,525.15a4.07,4.07,0,0,0-3.52,2.48,5.36,5.36,0,0,0,.25,4.79c1.81,3.52,5.78,4.77,8.64,7.2a7.56,7.56,0,0,1,2.78,4.32,6.56,6.56,0,0,1-1.32,4.86A9.67,9.67,0,0,1,132.4,552a17.17,17.17,0,0,1-5.53,1.11,8.6,8.6,0,0,1-5.27-1.36,5.56,5.56,0,0,1-2.29-3.85,3.75,3.75,0,0,1,1.7-3.56,5.43,5.43,0,0,1,3.92-.64c3.34.66,5.07,4,5.81,7,.94,3.87.57,8,2,11.74a15.53,15.53,0,0,0,6.39,7.66,13.39,13.39,0,0,0,10.72,1.69,14.48,14.48,0,0,0,2.8-1c.43-.2.06-.83-.37-.63a12.77,12.77,0,0,1-11.4.08,14.81,14.81,0,0,1-7.12-7.19c-1.71-3.73-1.37-7.93-2.19-11.87-.65-3.17-2.25-6.71-5.51-7.9-2.62-1-6.14-.22-7.23,2.61a5.3,5.3,0,0,0,.54,4.5,6.85,6.85,0,0,0,3.92,3,12.38,12.38,0,0,0,5.71.24,16,16,0,0,0,5.42-1.78,9.21,9.21,0,0,0,3.77-3.85,6.77,6.77,0,0,0,.44-5.16c-1.32-3.76-5.3-5.31-8.27-7.48a8.75,8.75,0,0,1-3.38-4.26,4.21,4.21,0,0,1,1.07-4.39,2.94,2.94,0,0,1,2-.82.35.35,0,0,0,.35-.37.37.37,0,0,0-.35-.36Z" transform="translate(-39.13 -36.58)"/>
    <circle class="cls-1" cx="75.64" cy="541.93" r="6.8"/>
    <circle class="cls-1" cx="79.88" cy="503.97" r="5.62"/>
    <circle class="cls-1" cx="11.23" cy="508.12" r="5.62"/>
    <path class="cls-1" d="M152.34,652.33a16.85,16.85,0,0,0-9.43,3.09,34.33,34.33,0,0,0-7.62,7.36c-2.41,3.07-4.48,6.39-6.71,9.59a50.23,50.23,0,0,1-6.89,8.29A23.55,23.55,0,0,1,113,686c-.4.13-.8.24-1.21.35a.37.37,0,0,1-.19-.71,21.68,21.68,0,0,0,8.93-4.94,45.16,45.16,0,0,0,7-8.12c2.24-3.18,4.3-6.5,6.67-9.59a37.63,37.63,0,0,1,7.59-7.69,18.35,18.35,0,0,1,9.23-3.65c.44,0,.87,0,1.31,0a.38.38,0,0,1,.36.38.37.37,0,0,1-.36.35Z" transform="translate(-39.13 -36.58)"/>
    <path class="cls-1" d="M152,686.17c-6-6.06-14.19-8.93-22.32-10.79-8.51-1.94-17.29-3-25.38-6.45a35.66,35.66,0,0,1-10.47-6.75,34.63,34.63,0,0,1-7-9.46,35.82,35.82,0,0,1-3.21-23.2,39.52,39.52,0,0,1,11.68-20.9c.73-.68,1.48-1.34,2.26-2,.36-.3.88.22.51.52a39.11,39.11,0,0,0-13.11,19.88,35.12,35.12,0,0,0,1.57,23.31,34.72,34.72,0,0,0,6.3,9.74,33.36,33.36,0,0,0,9.8,7.24c7.84,3.87,16.62,5.07,25.09,6.85,8,1.68,16.13,4.08,22.53,9.37.79.65,1.55,1.35,2.28,2.08.33.34-.19.86-.52.52Z" transform="translate(-39.13 -36.58)"/>
    <path class="cls-1" d="M152.41,640.28a47.54,47.54,0,0,0-27.94,1,24.78,24.78,0,0,0-7.49,3.68c-1.88,1.49-3.53,3.75-3.06,6.29a5.9,5.9,0,0,0,4.9,4.52,5.62,5.62,0,0,0,5.65-3.16A6.1,6.1,0,0,0,124,646a8.79,8.79,0,0,0-6-3.22,11.8,11.8,0,0,0-7.36,1.7c-5,2.88-8.28,7.9-12.52,11.72a21,21,0,0,1-7,4.33,22,22,0,0,1-7.84,1.19,28.72,28.72,0,0,1-15.51-5.33A51.37,51.37,0,0,1,56.16,644.6c-1.77-2.38-3.31-4.93-5.16-7.25a13.77,13.77,0,0,0-7-5.07,7.68,7.68,0,0,0-4,0,.35.35,0,0,1-.44-.27.37.37,0,0,1,.24-.44,9.77,9.77,0,0,1,8.08,1.77,25,25,0,0,1,6,6.75c3.38,4.95,7,9.75,11.63,13.62a29.73,29.73,0,0,0,16.21,7.2,22,22,0,0,0,8.6-.84A20.22,20.22,0,0,0,98,655.43c4.38-4,7.79-9.35,13.27-12a12.11,12.11,0,0,1,7.4-1.26,9.53,9.53,0,0,1,5.89,3.32,7,7,0,0,1-3.92,11,6.6,6.6,0,0,1-6.18-2.46,6,6,0,0,1-.57-6.53c1.19-2.3,3.51-3.89,5.77-5a43.28,43.28,0,0,1,8.89-3.13,48.53,48.53,0,0,1,19.24-.75,47.19,47.19,0,0,1,4.86,1,.37.37,0,0,1,.24.46.38.38,0,0,1-.44.25Z" transform="translate(-39.13 -36.58)"/>
    <path class="cls-1" d="M75.94,686.49c-2.59-3.48-5.24-7.17-6.36-11.43a13.71,13.71,0,0,1-.24-6.24,13.36,13.36,0,0,1,2.21-5,21.84,21.84,0,0,1,8.91-7c4.29-1.95,8.9-2.94,13.37-4.35,4.12-1.29,8.35-3,11.42-6.12,2.91-3,4.56-7.44,2.94-11.46-1.47-3.64-5.06-6.06-8.64-7.34-4.39-1.56-9.09-1.84-13.56-3.08-3.74-1-7.57-2.81-9.88-6.06a9.8,9.8,0,0,1-1-9.79,7,7,0,0,1,1.52-2c.35-.32.87.2.52.52-2.64,2.39-2.67,6.49-1.18,9.53,1.74,3.56,5.52,5.59,9.16,6.75,4.33,1.37,8.9,1.66,13.25,3,3.72,1.11,7.36,3.09,9.54,6.39a9.92,9.92,0,0,1,1.68,5.35A11.75,11.75,0,0,1,108,643.9c-2.07,3.67-5.75,6-9.55,7.65-8,3.36-17.43,3.88-24,10.06a13.47,13.47,0,0,0-4.62,10.12c.12,4.35,2.45,8.31,4.87,11.79.61.88,1.24,1.74,1.88,2.6.28.38-.35.75-.63.37Z" transform="translate(-39.13 -36.58)"/>
    <path class="cls-1" d="M135.8,607.33a7.62,7.62,0,0,0,.44,12.7c2,1.2,4.89,1.35,6.52-.61a4,4,0,0,0,.93-2.86,3.12,3.12,0,0,0-1.62-2.4c-2.06-1.18-4.53-.49-6.43.64-1.17.69-2.25,1.54-3.37,2.31a18.89,18.89,0,0,1-18.55,1.71,18,18,0,0,1-9.22-10.29,17,17,0,0,1-.48-1.69c-.1-.46.61-.66.71-.2a17.17,17.17,0,0,0,8.88,11.3,17.91,17.91,0,0,0,15.59.11,23.41,23.41,0,0,0,3.55-2.17,22.93,22.93,0,0,1,3.57-2.27c2-1,4.64-1.21,6.53.19a3.81,3.81,0,0,1,1.57,2.76,4.65,4.65,0,0,1-.94,3.11,5.52,5.52,0,0,1-6.71,1.44,8.24,8.24,0,0,1-4.72-5.93,8.39,8.39,0,0,1,3.38-8.48c.38-.28.75.36.37.63Z" transform="translate(-39.13 -36.58)"/>
    <path class="cls-1" d="M58.07,686.35a24.55,24.55,0,0,0-4.54-9.71,25.7,25.7,0,0,0-8.17-7,23.45,23.45,0,0,0-5.67-2.16c-.46-.11-.26-.82.2-.71a25.07,25.07,0,0,1,9.84,4.91,26.25,26.25,0,0,1,7,8.54,24.7,24.7,0,0,1,2.1,5.9C58.88,686.62,58.17,686.81,58.07,686.35Z" transform="translate(-39.13 -36.58)"/>
    <path class="cls-1" d="M62,606.71a4,4,0,0,1,3.52,2.47,5.38,5.38,0,0,1-.25,4.8c-1.81,3.52-5.78,4.76-8.63,7.2a7.55,7.55,0,0,0-2.79,4.32,6.56,6.56,0,0,0,1.32,4.85,9.69,9.69,0,0,0,4.46,3.2,17.16,17.16,0,0,0,5.53,1.1,8.57,8.57,0,0,0,5.27-1.35,5.58,5.58,0,0,0,2.29-3.86,3.73,3.73,0,0,0-1.7-3.56,5.48,5.48,0,0,0-3.92-.64c-3.34.67-5.07,4-5.81,7-.94,3.87-.57,8-2,11.75a15.55,15.55,0,0,1-6.39,7.65,13.43,13.43,0,0,1-10.72,1.7,16.22,16.22,0,0,1-2.8-1c-.43-.21-.06-.84.37-.64a12.79,12.79,0,0,0,11.41.09,14.85,14.85,0,0,0,7.11-7.2c1.71-3.73,1.37-7.92,2.19-11.86.65-3.18,2.25-6.71,5.51-7.91,2.62-1,6.14-.21,7.23,2.61a5.3,5.3,0,0,1-.54,4.5,6.9,6.9,0,0,1-3.92,3,12.66,12.66,0,0,1-5.71.24,16.23,16.23,0,0,1-5.42-1.78,9.23,9.23,0,0,1-3.77-3.86,6.74,6.74,0,0,1-.44-5.15c1.32-3.76,5.3-5.32,8.27-7.49A8.72,8.72,0,0,0,65,612.65a4.22,4.22,0,0,0-1.07-4.4,3,3,0,0,0-2-.81.37.37,0,0,1-.35-.38.36.36,0,0,1,.35-.35Z" transform="translate(-39.13 -36.58)"/>
    <circle class="cls-1" cx="38.09" cy="623.49" r="6.8"/>
    <circle class="cls-1" cx="33.85" cy="585.53" r="5.62"/>
    <circle class="cls-1" cx="102.5" cy="589.68" r="5.62"/>
  </g>
</svg>
