<svg id="Warstwa_1" data-name="Warstwa 1" xmlns="http://www.w3.org/2000/svg" viewBox="0 0 836.84 728.98">
  <defs>
    <style>
      .cls-1 {
        fill: none;
        stroke: #fff;
        stroke-miterlimit: 10;
        stroke-width: 2.5px;
      }

      .cls-2 {
        fill: #3f3d56;
      }

      .cls-3 {
        fill: #fff;
      }

      .cls-4 {
        fill: #f97373;
      }

      .cls-5 {
        fill: #ff5851;
      }

      .cls-6 {
        fill: #728cb8;
      }

      .cls-7 {
        fill: #ffbd66;
      }
    </style>
  </defs>
  <g id="ILike">
    <path class="cls-1" d="M661,838.86a1.4,1.4,0,0,1-1.58-1.58l.31-217.09a1.12,1.12,0,0,1,1.27-1.27h35.39a1.12,1.12,0,0,1,1.26,1.27l.32,217.09c0,1.05-.43,1.58-1.27,1.58Z" transform="translate(-502.4 -140.78)"/>
    <path class="cls-1" d="M773.76,838.86c-.84,0-1.26-.53-1.26-1.58l.32-216.78a1.4,1.4,0,0,1,1.58-1.58h35.07a1.4,1.4,0,0,1,1.58,1.58L810.74,800h65.09a1.4,1.4,0,0,1,1.58,1.58v35.71a1.4,1.4,0,0,1-1.58,1.58Z" transform="translate(-502.4 -140.78)"/>
    <path class="cls-1" d="M899.53,838.86a1.4,1.4,0,0,1-1.58-1.58l.31-217.09a1.12,1.12,0,0,1,1.27-1.27h35.39a1.12,1.12,0,0,1,1.26,1.27l.32,217.09c0,1.05-.42,1.58-1.26,1.58Z" transform="translate(-502.4 -140.78)"/>
    <path class="cls-1" d="M965.57,838.86c-.85,0-1.26-.53-1.26-1.58l.63-216.78c0-1,.42-1.58,1.26-1.58h35.39c.84,0,1.27.53,1.27,1.58v74.89l49.61-75.2a2.75,2.75,0,0,1,2.21-1.27H1091c.84,0,1,.43.63,1.27L1037,707.4l61.3,130.19c.42.85-.11,1.27-1.58,1.27h-38.55a1.69,1.69,0,0,1-1.9-1.27l-42.66-92.9-11.06,17.38v75.21c0,1.05-.42,1.58-1.26,1.58Z" transform="translate(-502.4 -140.78)"/>
    <path class="cls-1" d="M1113.77,838.86c-.84,0-1.26-.53-1.26-1.58l.31-217.09a1.12,1.12,0,0,1,1.27-1.27h101.43c.84,0,1.27.53,1.27,1.58v35.39a1.12,1.12,0,0,1-1.27,1.27h-64.78v49.29h64.78a1.13,1.13,0,0,1,1.27,1.27l.31,35.71a1.11,1.11,0,0,1-1.26,1.26h-65.1V800h65.1c.84,0,1.26.53,1.26,1.58v36a1.12,1.12,0,0,1-1.26,1.27Z" transform="translate(-502.4 -140.78)"/>
  </g>
  <g id="theLife">
    <path class="cls-1" d="M674.74,588.86c-.54,0-.8-.33-.8-1v-114h-26a.88.88,0,0,1-1-1l.2-22.4a.71.71,0,0,1,.8-.8h76c.66,0,1,.27,1,.8v22.4c0,.67-.27,1-.8,1h-26.2l.2,114c0,.67-.27,1-.8,1Z" transform="translate(-502.4 -140.78)"/>
    <path class="cls-1" d="M735.53,588.86c-.53,0-.8-.33-.8-1l.2-137.4c0-.53.34-.8,1-.8h22.2c.67,0,1,.27,1,.8l-.2,54.4h30v-54.4a.71.71,0,0,1,.8-.8h22.2c.67,0,1,.27,1,.8l.4,137.4a.88.88,0,0,1-1,1h-22.4a.89.89,0,0,1-1-1v-58.8h-30v58.8c0,.67-.26,1-.8,1Z" transform="translate(-502.4 -140.78)"/>
    <path class="cls-1" d="M830.53,588.86c-.53,0-.8-.33-.8-1l.2-137.4a.71.71,0,0,1,.8-.8h64.2c.53,0,.8.33.8,1v22.4a.71.71,0,0,1-.8.8h-41v31.2h41a.71.71,0,0,1,.8.8l.2,22.6a.71.71,0,0,1-.8.8h-41.2v35h41.2c.53,0,.8.33.8,1v22.8a.71.71,0,0,1-.8.8Z" transform="translate(-502.4 -140.78)"/>
    <path class="cls-1" d="M944.13,588.86c-.53,0-.8-.33-.8-1l.2-137.2a.88.88,0,0,1,1-1h22.2a.88.88,0,0,1,1,1l-.2,113.6h41.2a.88.88,0,0,1,1,1v22.6a.88.88,0,0,1-1,1Z" transform="translate(-502.4 -140.78)"/>
    <path class="cls-1" d="M1023.73,588.86a.88.88,0,0,1-1-1l.2-137.4a.71.71,0,0,1,.8-.8h22.4a.71.71,0,0,1,.8.8l.2,137.4c0,.67-.27,1-.8,1Z" transform="translate(-502.4 -140.78)"/>
    <path class="cls-1" d="M1065.73,588.86a.88.88,0,0,1-1-1l.4-137.4a.71.71,0,0,1,.8-.8h64c.66,0,1,.27,1,.8v22.6a.71.71,0,0,1-.8.8h-41v31h41c.53,0,.8.33.8,1l.2,22.6c0,.53-.34.8-1,.8h-41v58.6a.89.89,0,0,1-1,1Z" transform="translate(-502.4 -140.78)"/>
    <path class="cls-1" d="M1151.72,588.86c-.53,0-.8-.33-.8-1l.2-137.4a.71.71,0,0,1,.8-.8h64.2c.54,0,.8.33.8,1v22.4a.71.71,0,0,1-.8.8h-41v31.2h41a.71.71,0,0,1,.8.8l.2,22.6a.71.71,0,0,1-.8.8h-41.2v35h41.2c.53,0,.8.33.8,1v22.8a.71.71,0,0,1-.8.8Z" transform="translate(-502.4 -140.78)"/>
  </g>
  <g id="design">
    <path class="cls-1" d="M657.4,411.86a1,1,0,0,1-1.18-1.19l.47-162.82a.84.84,0,0,1,.95-.94l44.32-.24a44.26,44.26,0,0,1,23.82,6.16A48.58,48.58,0,0,1,743,270a45.92,45.92,0,0,1,6.4,23.82v68a48.32,48.32,0,0,1-6.64,25,49.66,49.66,0,0,1-42.9,24.77Zm27.73-29.15h14.69a20,20,0,0,0,14.82-6.16,20.26,20.26,0,0,0,6-14.7V293.6a18,18,0,0,0-5.57-13.16A17.17,17.17,0,0,0,702,275.11l-16.59.24Z" transform="translate(-502.4 -140.78)"/>
    <path class="cls-1" d="M769,411.86c-.63,0-.94-.39-.94-1.19l.23-162.82a.84.84,0,0,1,1-.94h76.08c.63,0,.95.39.95,1.18v26.55a.84.84,0,0,1-.95.94H796.75v37h48.59a.84.84,0,0,1,.95.94l.23,26.78a.84.84,0,0,1-.94,1H796.75v41.48h48.83c.62,0,.94.39.94,1.18v27a.84.84,0,0,1-.94.95Z" transform="translate(-502.4 -140.78)"/>
    <path class="cls-1" d="M906.48,414.23a43.56,43.56,0,0,1-23.34-6.52,49,49,0,0,1-16.83-17.3A46.45,46.45,0,0,1,860,366.59v-10.9a1.05,1.05,0,0,1,1.19-1.19h26.54c.63,0,1,.4,1,1.19v10.9A18.91,18.91,0,0,0,893.92,380a16.84,16.84,0,0,0,25.13-.12,19,19,0,0,0,5.21-13.27q0-8.76-11.38-15.17L901,344.79q-8.06-4.5-15.16-8.53-13.05-7.59-19.32-19.08a53.2,53.2,0,0,1-6.28-25.95,45,45,0,0,1,6.4-23.82,47.65,47.65,0,0,1,16.94-16.71,45.6,45.6,0,0,1,46,.12,47.74,47.74,0,0,1,16.83,16.82,45.33,45.33,0,0,1,6.28,23.59v19.43a.84.84,0,0,1-1,.95H925.21a.84.84,0,0,1-1-.95L924,291.23q0-8.3-5.21-13.51a16.86,16.86,0,0,0-12.33-5.22,16.6,16.6,0,0,0-12.56,5.57,18.65,18.65,0,0,0-5.21,13.16q0,7.81,3.32,13t12.08,9.95q1.18.72,4.63,2.49t7.46,4q4,2.26,7.23,3.91c2.13,1.11,3.44,1.82,3.91,2.14A56.36,56.36,0,0,1,946.06,343q6.87,9.6,6.88,23.58A47.24,47.24,0,0,1,929.83,408,44.83,44.83,0,0,1,906.48,414.23Z" transform="translate(-502.4 -140.78)"/>
    <path class="cls-1" d="M970.71,411.86a1.05,1.05,0,0,1-1.19-1.19l.24-162.82a.84.84,0,0,1,1-.94h26.54a.84.84,0,0,1,1,.94l.24,162.82c0,.8-.32,1.19-1,1.19Z" transform="translate(-502.4 -140.78)"/>
    <path class="cls-1" d="M1062.66,414.23a43.47,43.47,0,0,1-23.22-6.4,48.28,48.28,0,0,1-16.71-17.18,46.9,46.9,0,0,1-6.28-24.06V291.46a46,46,0,0,1,6.28-23.58,47.87,47.87,0,0,1,16.83-17.18,43.63,43.63,0,0,1,23.1-6.4,45.27,45.27,0,0,1,23.58,6.28,46.66,46.66,0,0,1,22.88,40.88v10.9c0,.64-.4.95-1.19.95h-26.54a.83.83,0,0,1-1-.95v-9q0-9-5.1-14.93a16.06,16.06,0,0,0-12.68-5.93q-6.87,0-12.2,5.69a18.77,18.77,0,0,0-5.33,13.27v75.13a18.86,18.86,0,0,0,5.21,13.39,16.3,16.3,0,0,0,12.32,5.57,16.62,16.62,0,0,0,12.68-5.45,19,19,0,0,0,5.1-13.51V355h-16.59a1.05,1.05,0,0,1-1.19-1.19V327.25a1.05,1.05,0,0,1,1.19-1.19h44.32c.63,0,.95.4.95,1.19v39.34a46.91,46.91,0,0,1-6.29,24.06,48.33,48.33,0,0,1-16.7,17.18A44,44,0,0,1,1062.66,414.23Z" transform="translate(-502.4 -140.78)"/>
    <path class="cls-1" d="M1128.07,411.86c-1.26,0-1.89-.55-1.89-1.66l-.24-161.4a1.67,1.67,0,0,1,1.9-1.89h21.33l40,93.37L1188,248.8q0-1.89,2.13-1.89h23.46c.95,0,1.42.63,1.42,1.89l.24,161.64c0,.94-.4,1.42-1.18,1.42h-20.86l-41-87.22,1.66,85.32c0,1.27-.71,1.9-2.14,1.9Z" transform="translate(-502.4 -140.78)"/>
  </g>
  <g id="bird">
    <circle class="cls-2" cx="480.85" cy="63.57" r="29"/>
    <path class="cls-3" d="M965,206.68a7.66,7.66,0,0,1,10.81-1,7.41,7.41,0,0,1,1,1,8.53,8.53,0,1,0-12.06-.28Z" transform="translate(-502.4 -140.78)"/>
    <path class="cls-3" d="M988,206.68a7.67,7.67,0,0,1,10.81-1,6.84,6.84,0,0,1,1,1,8.53,8.53,0,1,0-12.06-.28Z" transform="translate(-502.4 -140.78)"/>
    <circle class="cls-2" cx="465.57" cy="56.82" r="2.93"/>
    <circle class="cls-2" cx="488.6" cy="56.82" r="2.93"/>
    <circle class="cls-4" cx="459.95" cy="70.82" r="3.41"/>
    <circle class="cls-4" cx="499.19" cy="70.82" r="3.41"/>
    <polygon class="cls-4" points="479.57 64 477.01 75.09 481.27 70.82 479.57 64"/>
    <polygon class="cls-2" points="492.72 106.65 489.81 104.21 489.88 106.65 488.98 106.65 488.9 104.07 484.98 106.65 483.34 106.65 488.88 103.01 488.66 95.37 488.5 89.6 489.4 89.58 489.56 95.37 489.78 103 494.12 106.65 492.72 106.65"/>
    <polygon class="cls-2" points="479.07 106.65 476.16 104.21 476.23 106.65 475.33 106.65 475.26 104.07 471.33 106.65 469.69 106.65 475.23 103.01 475.01 95.37 474.85 89.6 475.75 89.58 475.92 95.37 476.13 103 480.47 106.65 479.07 106.65"/>
    <path class="cls-2" d="M983.67,173.21a2.4,2.4,0,0,0-2,1.57c-.41-1.43-1.28-2.42-2.29-2.42l-.21,0c-.39-1.52-1.3-2.59-2.35-2.59-1.42,0-2.56,1.91-2.56,4.26s1.14,4.27,2.56,4.27l.2,0c.39,1.53,1.3,2.6,2.36,2.6a2.39,2.39,0,0,0,2-1.57c.42,1.43,1.29,2.42,2.3,2.42,1.42,0,2.56-1.91,2.56-4.26S985.09,173.21,983.67,173.21Z" transform="translate(-502.4 -140.78)"/>
    <g>
      <path class="cls-5" d="M956,215.34h0a8.53,8.53,0,0,1-8.53-8.53h0v-4.27A8.53,8.53,0,0,1,956,194h0v21.33Z" transform="translate(-502.4 -140.78)"/>
      <path class="cls-5" d="M1010.47,194h0a8.53,8.53,0,0,1,8.53,8.53v4.27a8.53,8.53,0,0,1-8.53,8.53h0V194Z" transform="translate(-502.4 -140.78)"/>
      <path class="cls-5" d="M1014.94,203.21h-1.35a31.13,31.13,0,0,0-62.26,0H950a32.49,32.49,0,0,1,65,0Z" transform="translate(-502.4 -140.78)"/>
    </g>
  </g>
  <g id="musicLeft">
    <path class="cls-3" d="M881,177.16h0l-2.08-.87-8.76-3.7-3.14-1.33-.24.61h0l-4.22,10.65,11.87,5,.06,0-.8,1.89a3.55,3.55,0,0,0-.28.55,2.63,2.63,0,0,0,1.5,3.22c1,.39,2.27-.43,2.83-1.85s0-3.17-1-3.6h0l-2.08-.86-7.1-2.77,4.06-10.25-.6-.23L867,184l-.87-.34,4.07-10.3.11.05,8.35,3.53.06.06-.8,1.89a3.45,3.45,0,0,0-.28.54,2.62,2.62,0,0,0,1.5,3.22c1,.4,2.27-.43,2.83-1.84S882,177.59,881,177.16Z" transform="translate(-502.4 -140.78)"/>
    <path class="cls-3" d="M922.14,203.31c-4.31-2.46-3.45-7.87-3.45-7.87-.11-3.51-3-3-3-3l-1.06.25a3.27,3.27,0,0,0-1.57-.3l-1.61.28c3.66.86,3.36,3.92,3.36,3.92l.52,3.58-9.59-3.87,1.1-2.6a5.34,5.34,0,0,0,.39-.75,3.66,3.66,0,0,0-2.09-4.48c-1.39-.55-3.14.6-3.92,2.57s0,4.4,1.33,5h0l2.89,1.2,0-.07ZM917.27,197l.31,3.43a7.85,7.85,0,0,1-1.44-5.25,3.28,3.28,0,0,0-.65-1.83,3.87,3.87,0,0,1,1.78,3.65Z" transform="translate(-502.4 -140.78)"/>
    <path class="cls-3" d="M849,152.64h0l-2.88-1.2-12.06-4.69,3.05-2.7a3.84,3.84,0,0,1,5.25-.86l-.94-1.41s-1.78-2.35-4.26.14c0,0-3.08,4.53-7.91,3.38l16.49,7,.09.08L844.71,155a5.34,5.34,0,0,0-.39.75,3.63,3.63,0,0,0,2.08,4.47c1.39.55,3.15-.59,3.93-2.56S850.35,153.24,849,152.64Z" transform="translate(-502.4 -140.78)"/>
  </g>
  <g id="musicRight">
    <path class="cls-3" d="M1049.53,209l.58,1.37a2.05,2.05,0,0,1,.2.39,1.89,1.89,0,0,1-1.08,2.33c-.73.29-1.64-.31-2-1.33a2.16,2.16,0,0,1,.7-2.61h0l1.5-.62,5.14-2-2.94-7.41.44-.17,2.93,7.41.64-.25-2.95-7.44-.08,0-6,2.55,0,0,.58,1.37a1.79,1.79,0,0,1,.2.39,1.9,1.9,0,0,1-1.08,2.33c-.73.28-1.64-.31-2-1.34a2.15,2.15,0,0,1,.7-2.6h0l1.5-.62,6.14-2.6h0l.2-.08,2.27-1,3.22,8.14-8.58,3.63Z" transform="translate(-502.4 -140.78)"/>
    <path class="cls-3" d="M1076.74,167.25h0l2.58-1.08,10.81-4.2-2.73-2.42a3.44,3.44,0,0,0-4.71-.77l.85-1.26s1.59-2.11,3.82.12c0,0,2.75,4.06,7.08,3l-14.78,6.25-.08.07,1,2.35a5.45,5.45,0,0,1,.35.68,3.27,3.27,0,0,1-1.87,4c-1.25.49-2.82-.54-3.52-2.3S1075.53,167.78,1076.74,167.25Z" transform="translate(-502.4 -140.78)"/>
    <path class="cls-3" d="M1068.81,202.53c5.36-3.07,4.29-9.8,4.29-9.8.13-4.37,3.75-3.75,3.75-3.75l1.31.3a4,4,0,0,1,2-.37l2,.34c-4.56,1.07-4.18,4.88-4.18,4.88l-.64,4.46,11.93-4.82-1.37-3.23a5.55,5.55,0,0,1-.48-.94c-1-2.45.86-4.88,2.59-5.57s3.92.75,4.89,3.19,0,5.48-1.67,6.22h0l-3.59,1.49,0-.08Zm6.06-7.83-.39,4.28a9.78,9.78,0,0,0,1.8-6.54,4.09,4.09,0,0,1,.8-2.29,4.84,4.84,0,0,0-2.21,4.55Z" transform="translate(-502.4 -140.78)"/>
  </g>
  <g id="flower5">
    <g>
      <path class="cls-2" d="M1313.17,860.85s1.21-25.41,26.07-22.46" transform="translate(-502.4 -140.78)"/>
      <circle class="cls-5" cx="803.75" cy="683.45" r="12.44"/>
    </g>
    <rect class="cls-2" x="801.72" y="704.4" width="3.51" height="24.58"/>
  </g>
  <g id="flower4">
    <path class="cls-2" d="M1253.28,856.51s1.21-25.41,26.07-22.46" transform="translate(-502.4 -140.78)"/>
    <circle class="cls-5" cx="743.85" cy="679.11" r="12.44"/>
    <rect class="cls-2" x="741.83" y="700.06" width="3.51" height="24.58"/>
  </g>
  <g id="flower3">
    <g>
      <path class="cls-2" d="M734.65,860.85s1.21-25.41,26.07-22.46" transform="translate(-502.4 -140.78)"/>
      <circle class="cls-5" cx="225.23" cy="683.45" r="12.44"/>
    </g>
    <rect class="cls-2" x="223.2" y="704.4" width="3.51" height="24.58"/>
  </g>
  <g id="flower2">
    <path class="cls-2" d="M603.75,860.85s1.22-25.41,26.07-22.46" transform="translate(-502.4 -140.78)"/>
    <circle class="cls-5" cx="94.33" cy="683.45" r="12.44"/>
    <rect class="cls-2" x="92.31" y="704.4" width="3.51" height="24.58"/>
  </g>
  <g id="flower1">
    <path class="cls-2" d="M521.86,860.85s1.22-25.41,26.07-22.46" transform="translate(-502.4 -140.78)"/>
    <circle class="cls-5" cx="12.44" cy="683.45" r="12.44"/>
    <rect class="cls-2" x="10.42" y="704.4" width="3.51" height="24.58"/>
  </g>
  <path id="cloudRight" class="cls-6" d="M1336.18,375.12a56.09,56.09,0,0,0-110-11.82c-.67,0-1.35-.06-2-.06a56.1,56.1,0,0,0-53.81,40.29,39.64,39.64,0,0,0-47,11.7h175a37.94,37.94,0,0,0,38-37.83c0-.49,0-1,0-1.45C1336.21,375.67,1336.19,375.4,1336.18,375.12Z" transform="translate(-502.4 -140.78)"/>
  <g id="cloudLeft">
    <circle class="cls-7" cx="126" cy="219.66" r="50.89"/>
    <path class="cls-6" d="M502.46,376.76A53.79,53.79,0,0,1,608,365.42c.65,0,1.3-.05,2-.05A53.82,53.82,0,0,1,661.57,404a38,38,0,0,1,45.1,11.22H538.88A36.38,36.38,0,0,1,502.4,379c0-.47,0-.93,0-1.39C502.43,377.29,502.44,377,502.46,376.76Z" transform="translate(-502.4 -140.78)"/>
  </g>
</svg>
