<svg id="Warstwa_1" data-name="Warstwa 1" xmlns="http://www.w3.org/2000/svg" viewBox="0 0 448.82 487.23">
  <defs>
    <style>
      .cls-1 {
        fill: #3f3d56;
      }

      .cls-2 {
        fill: #fff;
      }

      .cls-3 {
        fill: #f97373;
      }

      .cls-4 {
        fill: #ff5851;
      }
    </style>
  </defs>
  <circle class="cls-1" cx="224.41" cy="216.84" r="182.04"/>
  <path class="cls-2" d="M139,247.23a48.18,48.18,0,0,1,67.86-6.09,48.66,48.66,0,0,1,6.09,6.09,53.55,53.55,0,1,0-75.7-1.76C137.8,246.07,138.39,246.66,139,247.23Z" transform="translate(-29.18 -15.77)"/>
  <path class="cls-2" d="M283.55,247.23a48.17,48.17,0,0,1,73.94,0,53.54,53.54,0,1,0-75.7-1.76C282.36,246.07,283,246.66,283.55,247.23Z" transform="translate(-29.18 -15.77)"/>
  <circle class="cls-1" cx="128.51" cy="174.5" r="18.42"/>
  <circle class="cls-1" cx="273.07" cy="174.5" r="18.42"/>
  <circle class="cls-3" cx="93.23" cy="262.35" r="21.42"/>
  <circle class="cls-3" cx="339.52" cy="262.35" r="21.42"/>
  <polygon class="cls-3" points="216.38 219.52 200.32 289.12 227.09 262.35 216.38 219.52"/>
  <polygon class="cls-1" points="298.91 487.23 280.68 471.92 281.1 487.23 275.44 487.23 274.98 471.04 250.36 487.23 240.06 487.23 274.8 464.39 273.45 416.43 272.45 380.22 278.1 380.06 279.12 416.43 280.46 464.35 307.72 487.23 298.91 487.23"/>
  <polygon class="cls-1" points="213.24 487.23 195 471.92 195.43 487.23 189.78 487.23 189.32 471.04 164.7 487.23 154.4 487.23 189.13 464.39 187.78 416.43 186.78 380.22 192.44 380.06 193.46 416.43 194.79 464.35 222.05 487.23 213.24 487.23"/>
  <path class="cls-1" d="M256.27,37.19c-5,0-9.4,3.88-12.35,9.84-2.6-9-8-15.19-14.42-15.19a9.13,9.13,0,0,0-1.29.21c-2.45-9.57-8.14-16.28-14.78-16.28-8.87,0-16.06,12-16.06,26.77s7.19,26.78,16.06,26.78a10.85,10.85,0,0,0,1.29-.22c2.45,9.57,8.14,16.28,14.78,16.28,5,0,9.4-3.88,12.34-9.84,2.6,9,8.06,15.19,14.43,15.19,8.87,0,16.06-12,16.06-26.77S265.14,37.19,256.27,37.19Z" transform="translate(-29.18 -15.77)"/>
  <g>
    <path class="cls-4" d="M82.72,301.6h0a53.54,53.54,0,0,1-53.54-53.54h0V221.29a53.54,53.54,0,0,1,53.54-53.54h0V301.6Z" transform="translate(-29.18 -15.77)"/>
    <path class="cls-4" d="M424.46,167.75h0A53.54,53.54,0,0,1,478,221.29v26.77a53.54,53.54,0,0,1-53.54,53.54h0V167.75Z" transform="translate(-29.18 -15.77)"/>
    <path class="cls-4" d="M452.52,225.5H444c0-107.74-87.65-195.39-195.39-195.39S53.25,117.76,53.25,225.5h-8.5c0-112.42,91.46-203.88,203.88-203.88S452.52,113.08,452.52,225.5Z" transform="translate(-29.18 -15.77)"/>
  </g>
</svg>
